<svg id='circulo' width="36" height="36" viewBox="0 0 36 36" fill="none" xmlns="http://www.w3.org/2000/svg">
<path d="M17.8453 35.9575C27.4166 35.9575 35.1757 28.0222 35.1757 18.2335C35.1757 8.44489 27.4166 0.509613 17.8453 0.509613C8.27407 0.509613 0.515015 8.44489 0.515015 18.2335C0.515015 28.0222 8.27407 35.9575 17.8453 35.9575Z" fill="#C1121F"/>
<path d="M26.7417 10.8468C26.481 10.5924 26.1345 10.4505 25.7742 10.4505C25.4139 10.4505 25.0675 10.5924 24.8068 10.8468C21.1295 13.8462 17.8266 17.2965 14.9725 21.12C14.2717 19.7334 13.571 18.3468 12.8704 16.9602C12.0616 15.3598 9.69954 16.7736 10.5077 18.3727C11.5325 20.4008 12.5574 22.4289 13.5822 24.457C13.7059 24.664 13.8795 24.8351 14.0863 24.9538C14.2932 25.0725 14.5264 25.1349 14.7636 25.1349C15.0009 25.1349 15.2341 25.0725 15.4409 24.9538C15.6478 24.8351 15.8214 24.664 15.945 24.457C18.9866 20.076 22.6219 16.1597 26.7417 12.8257C26.9963 12.5622 27.139 12.2067 27.139 11.8362C27.139 11.4658 26.9963 11.1103 26.7417 10.8468V10.8468Z" fill="white"/>
</svg>
