<svg width="159" height="30" viewBox="0 0 159 30" fill="none" xmlns="http://www.w3.org/2000/svg">
<path d="M1.8 1.6C3.9 3 4 3.8 4 16.1V29H6.5C8.9 29 9 28.8 9 22V15H14C16.8 15 19 14.5 19 14C19 13.4 16.8 13 14 13H9V7.5V2H13.3C18 2 19.1 2.6 20.8 5.5C21.9 7.4 21.9 7.4 22 4.9C22 0.7 20.4 -4.32134e-07 9.6 -4.32134e-07C0.200005 -4.32134e-07 -0.299996 0.0999996 1.8 1.6Z" fill="black"/>
<path d="M83.3 1.7999C84.3 2.7999 85 4.7999 85 6.2999C85 8.6999 84.7 8.7999 81.6 8.2999C77.4 7.5999 74.5 9.1999 72.4 13.1999C69 19.8999 73 28.9999 79.5 28.9999C81.2 28.9999 83.1 28.4999 83.8 27.7999C84.7 26.8999 85.3 26.8999 86.2 27.7999C89.5 31.0999 90 29.2999 90 15.0999C90 0.0999019 90 -9.80916e-05 84.3 -9.80916e-05C81.8 -9.80916e-05 81.8 0.0999019 83.3 1.7999ZM84.8 16.4999C85.2 24.5999 84.5 26.9999 81.7 26.9999C78.2 26.9999 77 25.0999 77 19.1999C77 12.2999 78.3 9.7999 81.8 10.1999C84.4 10.4999 84.5 10.7999 84.8 16.4999Z" fill="black"/>
<path d="M107.6 0.8C107.2 1.5 101.3 14.8 96.9 24.7C95.9 27.1 95.5 29 96 29C96.6 29 97.7 27.2 98.6 25L100.2 21H106.5C112.4 21 112.8 21.1 113.9 23.9C115.2 26.9 118.6 29 122.2 29C124.2 29 124.2 28.9 121.9 26.7C120.6 25.5 117.3 19 114.5 12.2C109.8 0.6 108.8 -1 107.6 0.8ZM109 12.6C110.1 15.2 111 17.6 111 18.1C111 18.6 109 19 106.5 19C104 19 102 18.6 102 18C102 17 106.2 8 106.7 8C106.8 8 107.8 10.1 109 12.6Z" fill="black"/>
<path d="M148.2 3.2C147.5 3.9 147 5.4 147 6.6C147 7.8 146.4 9.1 145.8 9.3C144.8 9.7 144.8 9.9 145.8 9.9C146.6 10 147 12.2 147 17.3C147 26.1 148.6 29 153.3 29C155.1 29 157.2 28.5 158 28C159.1 27.3 158.7 27 156.3 27H153V19.5C153 15.4 152.9 11.7 152.8 11.2C152.6 10.8 153.5 10.4 154.8 10.2C157.7 9.8 157.7 8.3 154.8 8.4C152.8 8.5 152.5 8.1 152.8 5.2C153.1 2.6 152.8 2 151.3 2C150.2 2 148.9 2.5 148.2 3.2Z" fill="black"/>
<path d="M29.3 8.99986C26.7 10.0999 24 14.8999 24 18.4999C24 21.8999 26.5 26.6999 28.9 27.9999C32 29.5999 37.6 29.1999 40.1 27.0999C41.4 25.9999 42.2 24.8999 41.8 24.4999C41.4 24.0999 40.4 24.4999 39.5 25.3999C35.7 29.0999 30 26.4999 30 21.0999C30 19.1999 30.6 18.9999 36.5 18.9999C42.8 18.9999 43 18.8999 43 16.3999C43 12.7999 38 7.99986 34.3 8.09986C32.8 8.09986 30.5 8.49986 29.3 8.99986ZM36.4 11.5999C36.7 12.4999 37 14.2999 37 15.5999C37 17.6999 36.5 17.9999 33.5 17.9999C30.3 17.9999 30 17.6999 30 15.1999C30 13.6999 30.5 11.8999 31.2 11.1999C32.9 9.49986 35.7 9.69986 36.4 11.5999Z" fill="black"/>
<path d="M50.9 10.9C44.6 17.2 48.7 29 57.2 29C60.7 29 65 26.7 65 24.8C65 24.2 64.2 24.4 63.3 25.3C59.9 28.2 55.7 27.9 54.2 24.5C51.9 19.5 52.5 19 59.5 19C65.7 19 66 18.9 66 16.6C66 12.8 65 11 61.9 9.5C57.6 7.2 54.2 7.7 50.9 10.9ZM60.2 12.4C61.8 16 60.6 18 57 18C53.4 18 52.5 16.4 53.9 12.7C55.2 9.2 58.6 9.1 60.2 12.4Z" fill="black"/>
<path d="M125 8.7C125 8.9 125.7 9.8 126.5 10.6C127.6 11.7 128 14.4 128 20.6C128 28.9 128 29 130.5 29C132.9 29 132.9 28.8 133.2 20.2L133.5 11.5H137.2C141.4 11.5 142.4 10.3 139.8 8.6C138.5 7.8 137.2 7.9 135.1 8.7C133.2 9.4 130.7 9.5 128.5 9C126.6 8.6 125 8.4 125 8.7Z" fill="black"/>
</svg>
