<svg width="299" height="253" viewBox="0 0 299 253" fill="none" xmlns="http://www.w3.org/2000/svg">
<path d="M101 1.39997C101 2.19997 102.9 3.79997 105.3 4.89997C110 7.19997 113.2 12.4 115 20.7C116.2 25.7 117.4 29 122.1 38.6C123.7 42 125 45.4 125 46.2C125 47.8 126.8 52.6 130.2 60C131.3 62.5 133.3 67.4 134.5 71C135.7 74.6 137.6 79.3 138.7 81.5C139.9 83.7 142 89.7 143.6 94.8L146.3 104.1L144.4 106.7C143.3 108.2 141.1 109.8 139.5 110.3C137 111.2 136.4 110.9 134.6 108.7C128.7 101.5 123.6 93.3 117.8 82C114.3 75.1 109.5 66.3 107.3 62.5C104.8 58.4 102.9 53.5 102.5 50.7C101.2 41.9 93.8 35 90.2 39.3C88.8 40.9 90 43.1 96.1 50.2C98.6 53.1 102.4 58.4 104.5 62C110.7 72.6 122 94.9 124.2 100.9C125.4 104 126.9 107.4 127.6 108.5C129.2 110.7 129.4 113 128.1 113C127.7 113 125.3 110.5 122.9 107.5C120.5 104.5 118 102 117.4 102C115.6 102 112.9 97.2 110 89C108.2 83.9 106.8 81.4 105.6 81.2C101.8 80.4 101.9 82.7 105.8 88.6C107.9 91.8 111.3 97.1 113.3 100.2C115.3 103.3 118.6 107.7 120.6 110L124.3 114L123 118.8C120.4 128.4 114.8 133.5 109.7 130.9C106.3 129.1 97.5 122.1 91.6 116.5C86.5 111.7 75 96 75 93.9C75 92.3 70.6 93.3 70.2 95C70.1 95.8 72.6 99.4 75.9 103C79.2 106.6 81.9 110.1 82 110.7C82 111.4 82.6 112 83.4 112C84.1 112 85.8 113.5 87 115.4C88.3 117.2 92.4 121.1 96.2 124.1C99.9 127 103 129.9 103 130.5C103 131.2 103.9 132.5 105 133.5C107.3 135.5 107.6 139.3 105.8 140.7C105.1 141.3 103 142.2 101.2 142.8C98.3 143.8 97.2 143.5 89.3 139.4C84.5 136.9 79.4 133.9 78 132.9C66.3 123.8 59.9 118.3 49.9 108.4C41.5 100.2 37.8 97.1 36.6 97.6C33.3 98.9 35 102 41.7 106.8C49.6 112.4 65 124.9 70 129.8C71.9 131.7 75.9 134.8 78.8 136.7C81.7 138.6 84.3 140.7 84.6 141.5C84.9 142.2 86.3 143.1 87.8 143.5C93.5 144.9 95 146.7 95 152C95 157.4 92.6 160.2 88.9 159.3C86.3 158.6 86.3 161.7 89 162.5C90.1 162.8 91 163.8 91 164.6C91 168.8 72.8 169.4 60.5 165.5C56.1 164.1 50.1 162.5 47.2 162C44.3 161.5 36.4 158.6 29.7 155.7C23 152.7 16.6 149.9 15.4 149.6C14.3 149.3 12.5 148.2 11.4 147.2C10.3 146.2 8.20001 144.5 6.70001 143.6C4.20001 141.9 3.80001 141.9 1.40001 143.4C1.33637e-05 144.4 -0.999987 145.9 -0.799987 146.8C-0.499987 148.5 0.300014 148.8 20 156.1C26.3 158.4 33.3 161.1 35.5 162C39.2 163.5 43.1 164.7 58 168.5C63.1 169.8 75.6 174.2 79 176C79.8 176.4 80.5 177.8 80.5 179.1C80.5 181.4 80.2 181.5 75 181.2C72 181 66.4 179.7 62.5 178.3C58.7 177 53.5 175.4 51 175C42 173.3 35.7 171 34.3 169C32.5 166.5 30 166.4 30 168.8C30 170 31.6 171.4 34.8 172.8C43.2 176.5 53.4 179.8 58.5 180.5C61.3 180.9 67.3 182.9 71.8 185.1C77 187.5 81.7 189 84 189C89.4 189 90.1 190.4 89.1 198.6C87.9 208.9 89.4 212.4 95.6 213.6C97.5 213.9 99 214.6 99 215C99 215.4 100.4 216.3 102 216.9C106 218.3 105.8 220 101.6 220C95 220 89 227.5 89 235.8C89 240.9 92.8 248 96.7 250.3C102.7 253.7 113.3 252 115.9 247.1C117.5 244.1 115.9 243.8 113 246.5C106.9 252.3 99.4 249.7 98.3 241.2L97.7 237H107.8C114.8 237 118 236.6 118.2 235.8C118.6 234.6 122 237.9 130.2 247.3C134 251.6 139 253.3 144.6 252C148.4 251.1 153 247.5 153 245.3C153 243.6 151.3 243.6 150.3 245.3C149 247.5 144.7 250 142.2 250C139.4 250 135 245.8 135 243.1C135 240.2 139.6 239.2 143.1 241.3C145.6 242.7 146 242.7 147.4 241.1C148.3 240.1 149 238.8 149 238.2C149 237.5 150.4 237 152 237C154.9 237 155 236.8 155 232.7C155 230.2 154.2 227.3 153 225.5C151.9 223.8 151 221.9 151 221.1C151 218.2 146.4 210.6 144 209.6C142.5 208.9 141.4 207.5 141.2 206C141.1 204.7 140.6 203.3 140.2 203C138.9 202.1 139.5 198.9 141.2 197.6C142.4 196.7 142.7 195.2 142.5 191.7C142.3 189.1 142.6 187 143 187C143.5 187 143.7 186.3 143.4 185.5C143 184.7 143.2 184 143.7 184C144.9 184 154 175.1 154 173.9C154 173.4 154.7 173 155.5 173C156.3 173 157 172.6 157 172.1C157 171.6 158.5 170.7 160.3 169.9C162 169.2 163.8 168.1 164.2 167.6C164.7 166.9 165 166.9 165 167.5C165 169.3 163.6 170.7 161.1 171.5C158.7 172.2 158.7 172.3 160.5 173.6C161.5 174.4 162.9 175 163.4 175C164 175 163.6 174.3 162.6 173.5C160.7 172.1 160.7 172 163.3 172C165 172 166 171.5 166 170.6C166 168.3 168.2 167.5 169.5 169.3C170.2 170.3 171.1 171 171.5 171C171.9 171 171.7 170.3 171 169.5C170 168.3 170 168 171.4 168C172.3 168 173 167.3 173 166.4C173 165 172.7 165 171.5 166C170.6 166.7 170 166.8 170 166.2C170 165.7 170.7 164.9 171.6 164.6C172.5 164.3 173 163.3 172.7 162.5C172 160.7 174.9 154.8 176.1 155.5C176.6 155.9 177 155.4 177 154.6C177 151.7 180.2 151.1 182.8 153.5C184.6 155.2 186.5 155.8 189.7 155.8C192.2 155.8 194.4 156.1 194.7 156.4C195 156.6 196.2 156.5 197.5 156C199.1 155.4 200.2 155.5 200.9 156.3C201.4 157 203.1 157.7 204.7 157.8C206.2 157.9 207.7 158.5 207.8 159C208 159.6 209 160 210 160C211 160 212 160.7 212.4 161.5C212.7 162.3 213.6 162.7 214.4 162.4C215.2 162.1 216.9 162.5 218.2 163.3C219.5 164.1 222.2 165.1 224.2 165.4C227.1 165.9 228.1 165.7 228.9 164.3C229.5 163.3 230 162.9 230 163.5C230 165.6 235 158.6 235 156.4C235 155.1 235.7 153.7 236.6 153.2C237.9 152.5 237.4 152 234.1 150.7C231.8 149.7 229.1 149 228 149C225.6 149 225.5 147.2 227.4 141C230.6 130.7 234.4 124.8 239.3 123C241.1 122.3 244.3 120.9 246.6 119.9C248.8 118.8 251.4 118 252.4 118C256 118 268.1 113.8 267.7 112.6C267.1 110.6 263 110.8 258.7 113C253 116 235.6 122 229.5 123C220.7 124.5 215.5 124.2 212.7 122C211.3 120.9 209.6 120 208.8 120C208.1 120 206.2 119.3 204.7 118.5C200.9 116.5 196.1 115.2 186 113.4C179.6 112.3 176.9 111.3 174.8 109.4C172.7 107.3 171.6 106.9 169 107.5C166.4 108.1 165.8 107.9 165.3 106.2C165.1 105.1 164.1 104 163.2 103.7C162.2 103.5 161 101.3 160.2 98.4C157.5 88.7 155.8 84 154.8 83.4C154.2 83 152.5 80 151 76.6C149.4 73.3 146.8 69.3 145.1 67.8C143.4 66.2 141.4 63.4 140.6 61.5C139.8 59.6 138.4 58 137.6 58C136.8 58 135 56.6 133.5 54.8C131.1 51.9 130.8 51 131.3 46.3C132.1 38.7 129.1 30.4 123.2 23.9C120.2 20.5 118.7 18 112.8 6.69997C110.7 2.79997 106.6 -2.81755e-05 103 -2.81755e-05C101.9 -2.81755e-05 101 0.599972 101 1.39997ZM226.4 162.6C226.7 163.4 226.6 163.8 226 163.5C225.4 163.2 225 162.5 225 161.9C225 160.5 225.7 160.8 226.4 162.6ZM106 223C107.7 223.9 110 229.5 110 232.7C110 233.6 108.1 234 103.9 234H97.7L98.3 229.9C98.8 226 101.3 222 103.2 222C103.7 222 105 222.5 106 223Z" fill="#C1121F"/>
<path d="M173.1 171.3C171.8 173.4 171.9 173.4 173.6 171.8C174.6 170.8 175.2 169.8 174.9 169.6C174.6 169.3 173.8 170.1 173.1 171.3Z" fill="black"/>
<path d="M52 207.8C52 208.2 53 209 54.3 209.5C56.5 210.5 56.5 210.8 56.8 231.2L57 252H61.5H66V241V230H73.5C77.8 230 81 229.6 81 229C81 228.4 77.8 228 73.5 228H66V219V210H72.4C79.4 210 84 212.4 84 216.1C84 217.1 84.5 218 85 218C85.6 218 86 216.2 86 214.1C86 207.7 84.2 207 66.8 207C58.6 207 52 207.3 52 207.8Z" fill="black"/>
<path d="M178 207.9C178 208.4 179.1 209.1 180.4 209.4C182.9 210 184 212.5 184 217.8C184 220.8 183.8 221.1 181.8 220.4C174.4 218.1 167.2 220.9 164.1 227.3C160.1 235.6 162.7 247.2 169.3 250.7C173.5 252.8 179.5 252.7 182 250.5C183.9 248.8 184.1 248.8 185.8 250.3C186.8 251.3 188.6 252 189.8 252C192 252 192 251.9 192 231.1C192 206.7 192.1 207 183.4 207C180.4 207 178 207.4 178 207.9ZM181.5 223.2C184.1 224.3 184.1 224.4 183.8 235.3C183.5 245.9 183.4 246.4 180.8 248.3C174.7 252.9 170.4 246.2 171.3 233.7C171.7 227.6 172.1 226.3 174.4 224.3C177.5 221.7 178 221.6 181.5 223.2Z" fill="black"/>
<path d="M209.6 228.7C204.3 240.7 200 250.8 200 251.2C200 251.7 200.6 252 201.3 252C202 252 203.8 249.1 205.4 245.5L208.2 239H217.1H226L228.5 244.1C230.4 247.7 232.1 249.5 234.5 250.6C237.8 251.9 244 252.5 244 251.5C244 251.2 242.7 249.7 241 248.2C238.9 246.3 235.8 240.1 230.1 226.5C225.5 215.4 221.6 207.4 220.7 207.2C219.7 207 216.5 213.3 209.6 228.7ZM224.5 234.9C225.1 236.9 224.8 237 217.6 237C213.4 237 210 236.6 210 236.1C210 235.6 211.7 231.5 213.7 227L217.4 218.7L220.6 225.8C222.4 229.7 224.1 233.8 224.5 234.9Z" fill="black"/>
<path d="M282.2 212C281.6 213.1 281 215.1 281 216.5C281 218.3 280.3 219.3 278.5 220C275.4 221.2 275.3 222.8 278.3 223.2C280.4 223.5 280.5 223.9 280.8 235.6C281 246.8 281.2 247.9 283.4 249.9C286.1 252.4 291.4 252.9 295.9 251C299.9 249.4 299 247.8 294.9 249.3C289.9 251.2 289 248.9 289 234.8V223H292.5C294.9 223 296 222.5 296 221.5C296 220.5 294.9 220 292.5 220H289V215C289 210.2 288.9 210 286.2 210C284.6 210 283 210.8 282.2 212Z" fill="black"/>
<path d="M245 220.9C245 221.5 245.7 222 246.5 222C249.2 222 250 225.8 250 239V252.1L254.3 251.8L258.5 251.5L258.6 238.9C258.6 232 259 225.9 259.4 225.2C260.3 223.8 265.4 223.6 268 225C270.6 226.4 272.8 223.7 270.9 221.4C269.9 220.2 268.5 220 264.6 220.4C258.2 221.2 256.8 221.2 250.3 220.4C246.7 220 245 220.2 245 220.9Z" fill="black"/>
<path d="M98.0895 220.425C94.1211 222.163 90 229.749 90 235.438C90 240.811 93.8158 248.397 97.4789 250.451C102.211 252.98 110.758 252.347 114.574 249.029C116.558 247.29 117.779 245.552 117.168 244.92C116.558 244.288 115.032 244.92 113.658 246.342C107.858 252.189 99.1579 248.081 99.1579 239.547C99.1579 236.544 100.074 236.228 109.079 236.228C118.695 236.228 119 236.07 119 232.119C119 226.43 111.368 218.844 105.721 219.002C103.432 219.002 99.9211 219.635 98.0895 220.425ZM108.926 224.534C109.384 225.956 109.842 228.801 109.842 230.855C109.842 234.174 109.079 234.648 104.5 234.648C99.6158 234.648 99.1579 234.174 99.1579 230.223C99.1579 227.852 99.9211 225.008 100.989 223.901C103.584 221.215 107.858 221.531 108.926 224.534Z" fill="black"/>
<path d="M131.712 223.454C121.997 233.39 128.32 252 141.428 252C146.826 252 153.458 248.373 153.458 245.376C153.458 244.43 152.224 244.745 150.836 246.165C145.592 250.738 139.115 250.265 136.802 244.903C133.255 237.017 134.18 236.229 144.976 236.229C154.537 236.229 155 236.071 155 232.443C155 226.45 153.458 223.612 148.677 221.246C142.045 217.618 136.802 218.407 131.712 223.454ZM146.055 225.819C148.523 231.497 146.672 234.651 141.12 234.651C135.568 234.651 134.18 232.128 136.339 226.293C138.344 220.773 143.588 220.615 146.055 225.819Z" fill="black"/>
</svg>
