<svg width="150" height="117" viewBox="0 0 150 117" fill="none" xmlns="http://www.w3.org/2000/svg">
<path d="M50.6689 0.64743C50.6689 1.01739 51.6221 1.75731 52.8261 2.26601C55.1839 3.32964 56.7893 5.7344 57.6923 9.57274C58.2943 11.885 58.8963 13.4111 61.2542 17.8506C62.0568 19.4229 62.709 20.9953 62.709 21.3652C62.709 22.1052 63.612 24.3249 65.3177 27.747C65.8696 28.9032 66.8729 31.1692 67.4749 32.834C68.0769 34.4988 69.0301 36.6723 69.5819 37.6897C70.1839 38.7071 71.2374 41.4818 72.0401 43.8403L73.3946 48.1411L72.4415 49.3435C71.8896 50.0372 70.7859 50.7771 69.9833 51.0083C68.7291 51.4245 68.4281 51.2858 67.5251 50.2684C64.5652 46.9387 62.0067 43.1467 59.097 37.921C57.3411 34.7301 54.9331 30.6605 53.8294 28.9032C52.5752 27.0071 51.6221 24.7411 51.4214 23.4463C50.7692 19.3767 47.0568 16.1858 45.2508 18.1743C44.5485 18.9142 45.1505 19.9316 48.2107 23.215C49.4649 24.5561 51.3712 27.0071 52.4247 28.6719C55.5351 33.5739 61.204 43.8866 62.3077 46.6613C62.9097 48.0949 63.6622 49.6672 64.0134 50.1759C64.816 51.1933 64.9164 52.2569 64.2642 52.2569C64.0635 52.2569 62.8595 51.1008 61.6555 49.7135C60.4515 48.3261 59.1973 47.17 58.8963 47.17C57.9933 47.17 56.6388 44.9502 55.1839 41.1581C54.2809 38.7996 53.5786 37.6435 52.9766 37.551C51.0702 37.181 51.1204 38.2447 53.0769 40.9731C54.1304 42.453 55.8361 44.904 56.8395 46.3376C57.8428 47.7712 59.4983 49.8059 60.5017 50.8696L62.3578 52.7194L61.7057 54.9391C60.4013 59.3787 57.592 61.7372 55.0334 60.5348C53.3277 59.7024 48.913 56.4652 45.9532 53.8755C43.3946 51.6557 37.6254 44.3953 37.6254 43.4241C37.6254 42.6842 35.418 43.1467 35.2174 43.9328C35.1672 44.3028 36.4214 45.9676 38.0769 47.6324C39.7324 49.2972 41.0869 50.9158 41.1371 51.1933C41.1371 51.517 41.4381 51.7945 41.8395 51.7945C42.1906 51.7945 43.0435 52.4882 43.6455 53.3668C44.2976 54.1992 46.3545 56.0028 48.2609 57.3901C50.117 58.7312 51.6722 60.0723 51.6722 60.3498C51.6722 60.6735 52.1237 61.2747 52.6756 61.7372C53.8294 62.6621 53.9799 64.4194 53.0769 65.0668C52.7257 65.3443 51.6722 65.7605 50.7692 66.038C49.3144 66.5004 48.7625 66.3617 44.7993 64.4656C42.3913 63.3095 39.8328 61.9221 39.1304 61.4597C33.2609 57.2514 30.0502 54.7079 25.0334 50.1297C20.8194 46.3376 18.9632 44.904 18.3612 45.1352C16.7057 45.7364 17.5585 47.17 20.9197 49.3897C24.8829 51.9795 32.6087 57.7601 35.117 60.0261C36.0702 60.9048 38.0769 62.3383 39.5318 63.217C40.9866 64.0957 42.291 65.0668 42.4415 65.4368C42.592 65.7605 43.2943 66.1767 44.0468 66.3617C46.9063 67.0091 47.6589 67.8415 47.6589 70.2925C47.6589 72.7897 46.4548 74.0846 44.5987 73.6684C43.2943 73.3447 43.2943 74.7783 44.6488 75.1482C45.2007 75.287 45.6522 75.7494 45.6522 76.1194C45.6522 78.0617 36.5217 78.3391 30.3512 76.5356C28.1438 75.8882 25.1338 75.1482 23.6789 74.917C22.2241 74.6858 18.2609 73.3447 14.8997 72.0036C11.5385 70.6162 8.32775 69.3214 7.72574 69.1826C7.1739 69.0439 6.27089 68.5352 5.71905 68.0727C5.16722 67.6103 4.11371 66.8241 3.3612 66.4079C2.10702 65.6217 1.90635 65.6217 0.702338 66.3154C-1.3113e-06 66.7779 -0.501674 67.4715 -0.401339 67.8878C-0.250838 68.6739 0.150501 68.8127 10.0334 72.1886C13.194 73.2522 16.7057 74.5008 17.8094 74.917C19.6655 75.6107 21.6221 76.1656 29.097 77.9229C31.6555 78.5241 37.9264 80.5589 39.6321 81.3913C40.0334 81.5763 40.3846 82.2237 40.3846 82.8249C40.3846 83.8885 40.2341 83.9348 37.6254 83.7961C36.1204 83.7036 33.311 83.1024 31.3545 82.4549C29.4482 81.8538 26.8395 81.1138 25.5853 80.9289C21.0702 80.1427 17.9097 79.0791 17.2073 78.1542C16.3043 76.998 15.0502 76.9518 15.0502 78.0617C15.0502 78.6166 15.8528 79.264 17.4582 79.9115C21.6722 81.6225 26.7893 83.1486 29.3478 83.4723C30.7525 83.6573 33.7625 84.5822 36.0201 85.5996C38.6288 86.7095 40.9866 87.4032 42.1405 87.4032C44.8495 87.4032 45.2007 88.0506 44.699 91.8427C44.097 96.6059 44.8495 98.2245 47.9599 98.7795C48.913 98.9182 49.6655 99.2419 49.6655 99.4269C49.6655 99.6119 50.3679 100.028 51.1706 100.306C53.1772 100.953 53.0769 101.739 50.9699 101.739C47.6589 101.739 44.6488 105.208 44.6488 109.046C44.6488 111.404 46.5552 114.688 48.5117 115.751C51.5217 117.324 56.8395 116.538 58.1438 114.272C58.9465 112.884 58.1438 112.745 56.6889 113.994C53.6287 116.676 49.8662 115.474 49.3144 111.543L49.0134 109.601H54.0803C57.592 109.601 59.1973 109.416 59.2976 109.046C59.4983 108.491 61.204 110.017 65.3177 114.364C67.2241 116.353 69.7324 117.139 72.5418 116.538C74.4482 116.121 76.7558 114.457 76.7558 113.439C76.7558 112.653 75.903 112.653 75.4013 113.439C74.7492 114.457 72.592 115.613 71.3378 115.613C69.9331 115.613 67.7257 113.67 67.7257 112.422C67.7257 111.081 70.0334 110.618 71.7893 111.589C73.0435 112.237 73.2441 112.237 73.9465 111.497C74.398 111.034 74.7492 110.433 74.7492 110.156C74.7492 109.832 75.4515 109.601 76.2542 109.601C77.709 109.601 77.7592 109.508 77.7592 107.612C77.7592 106.456 77.3578 105.115 76.7558 104.283C76.204 103.496 75.7525 102.618 75.7525 102.248C75.7525 100.907 73.4448 97.3921 72.2408 96.9297C71.4883 96.6059 70.9364 95.9585 70.8361 95.2648C70.7859 94.6636 70.5351 94.0162 70.3344 93.8775C69.6823 93.4613 69.9833 91.9814 70.8361 91.3802C71.4381 90.964 71.5886 90.2704 71.4883 88.6518C71.3879 87.4494 71.5385 86.4783 71.7391 86.4783C71.99 86.4783 72.0903 86.1546 71.9398 85.7846C71.7391 85.4146 71.8394 85.0909 72.0903 85.0909C72.6923 85.0909 77.2575 80.9751 77.2575 80.4202C77.2575 80.1889 77.6087 80.004 78.01 80.004C78.4114 80.004 78.7625 79.819 78.7625 79.5878C78.7625 79.3565 79.515 78.9403 80.418 78.5704C81.2709 78.2466 82.1739 77.738 82.3746 77.5067C82.6254 77.183 82.7759 77.183 82.7759 77.4605C82.7759 78.2929 82.0736 78.9403 80.8194 79.3103C79.6154 79.634 79.6154 79.6803 80.5184 80.2814C81.0201 80.6514 81.7224 80.9289 81.9732 80.9289C82.2742 80.9289 82.0736 80.6051 81.5719 80.2352C80.6187 79.5878 80.6187 79.5415 81.9231 79.5415C82.7759 79.5415 83.2776 79.3103 83.2776 78.8941C83.2776 77.8304 84.3813 77.4605 85.0334 78.2929C85.3846 78.7553 85.8361 79.0791 86.0368 79.0791C86.2374 79.0791 86.1371 78.7553 85.7859 78.3854C85.2843 77.8304 85.2843 77.6917 85.9866 77.6917C86.4381 77.6917 86.7893 77.368 86.7893 76.9518C86.7893 76.3044 86.6388 76.3044 86.0368 76.7668C85.5853 77.0905 85.2843 77.1368 85.2843 76.8593C85.2843 76.6281 85.6354 76.2581 86.0869 76.1194C86.5385 75.9806 86.7893 75.5182 86.6388 75.1482C86.2876 74.3158 87.7425 71.5874 88.3445 71.9111C88.5953 72.0961 88.796 71.8648 88.796 71.4949C88.796 70.1538 90.4013 69.8763 91.7057 70.9862C92.6087 71.7723 93.5619 72.0498 95.1672 72.0498C96.4214 72.0498 97.5251 72.1885 97.6756 72.3273C97.8261 72.4198 98.4281 72.3735 99.0803 72.1423C99.8829 71.8648 100.435 71.9111 100.786 72.281C101.037 72.6048 101.89 72.9285 102.692 72.9747C103.445 73.021 104.197 73.2984 104.247 73.5297C104.348 73.8071 104.849 73.9921 105.351 73.9921C105.853 73.9921 106.354 74.3158 106.555 74.6858C106.706 75.0557 107.157 75.2407 107.559 75.102C107.96 74.9632 108.813 75.1482 109.465 75.5182C110.117 75.8882 111.472 76.3506 112.475 76.4893C113.93 76.7206 114.431 76.6281 114.833 75.9806C115.134 75.5182 115.385 75.3332 115.385 75.6107C115.385 76.5818 117.893 73.3447 117.893 72.3273C117.893 71.7261 118.244 71.0787 118.696 70.8474C119.348 70.5237 119.097 70.2925 117.441 69.6913C116.288 69.2289 114.933 68.9052 114.381 68.9052C113.177 68.9052 113.127 68.0727 114.08 65.2055C115.686 60.4423 117.592 57.7138 120.05 56.8814C120.953 56.5577 122.559 55.9103 123.712 55.4478C124.816 54.9391 126.12 54.5692 126.622 54.5692C128.428 54.5692 134.498 52.6269 134.298 52.0719C133.997 51.147 131.94 51.2395 129.783 52.2569C126.923 53.6443 118.194 56.419 115.134 56.8814C110.719 57.5751 108.11 57.4364 106.706 56.419C106.003 55.9103 105.15 55.4941 104.749 55.4941C104.398 55.4941 103.445 55.1704 102.692 54.8004C100.786 53.8755 98.3779 53.2743 93.311 52.4419C90.1003 51.9332 88.7458 51.4708 87.6923 50.5921C86.6388 49.621 86.0869 49.436 84.7826 49.7135C83.4782 49.9909 83.1772 49.8984 82.9264 49.1123C82.8261 48.6036 82.3244 48.0949 81.8729 47.9561C81.3712 47.8636 80.7692 46.8463 80.3679 45.5051C79.0134 41.0194 78.1605 38.8459 77.6589 38.5684C77.3578 38.3834 76.505 36.9961 75.7525 35.4237C74.9498 33.8976 73.6455 32.0478 72.7926 31.3542C71.9398 30.6142 70.9364 29.3194 70.5351 28.4407C70.1338 27.5621 69.4314 26.8221 69.0301 26.8221C68.6288 26.8221 67.7257 26.1747 66.9732 25.3423C65.7692 24.0012 65.6187 23.585 65.8696 21.4115C66.2709 17.8968 64.7659 14.0585 61.806 11.0526C60.301 9.48025 59.5485 8.32412 56.5886 3.09842C55.5351 1.29486 53.4782 0 51.6722 0C51.1204 0 50.6689 0.27747 50.6689 0.64743ZM113.579 75.1945C113.729 75.5644 113.679 75.7494 113.378 75.6107C113.077 75.4719 112.876 75.1482 112.876 74.8708C112.876 74.2233 113.227 74.3621 113.579 75.1945ZM53.1772 103.126C54.0301 103.543 55.1839 106.132 55.1839 107.612C55.1839 108.028 54.2308 108.213 52.1237 108.213H49.0134L49.3144 106.317C49.5652 104.514 50.8194 102.664 51.7726 102.664C52.0234 102.664 52.6756 102.895 53.1772 103.126Z" fill="#C1121F"/>
<path d="M86.8395 79.2178C86.1873 80.189 86.2374 80.189 87.0903 79.449C87.592 78.9866 87.893 78.5241 87.7425 78.4316C87.592 78.2929 87.1906 78.6629 86.8395 79.2178Z" fill="black"/>
<path d="M26.087 96.0972C26.087 96.2822 26.5886 96.6522 27.2408 96.8834C28.3445 97.3458 28.3445 97.4846 28.495 106.919L28.5953 116.538H30.8529H33.1104V111.451V106.364H36.8729C39.0301 106.364 40.6355 106.179 40.6355 105.901C40.6355 105.624 39.0301 105.439 36.8729 105.439H33.1104V101.277V97.1146H36.3211C39.8328 97.1146 42.1405 98.2245 42.1405 99.9356C42.1405 100.398 42.3913 100.814 42.6422 100.814C42.9432 100.814 43.1438 99.9818 43.1438 99.0107C43.1438 96.051 42.2408 95.7273 33.5117 95.7273C29.398 95.7273 26.087 95.866 26.087 96.0972Z" fill="white"/>
<path d="M89.2977 96.1435C89.2977 96.3747 89.8495 96.6984 90.5017 96.8372C91.7559 97.1146 92.3077 98.2708 92.3077 100.722C92.3077 102.109 92.2074 102.248 91.204 101.924C87.4917 100.86 83.8796 102.155 82.3244 105.115C80.3178 108.953 81.6221 114.318 84.9331 115.936C87.0402 116.908 90.0502 116.861 91.3044 115.844C92.2576 115.058 92.3579 115.058 93.2107 115.751C93.7124 116.214 94.6154 116.538 95.2174 116.538C96.3211 116.538 96.3211 116.491 96.3211 106.872C96.3211 95.5886 96.3713 95.7273 92.0067 95.7273C90.5017 95.7273 89.2977 95.9123 89.2977 96.1435ZM91.0535 103.219C92.3579 103.728 92.3579 103.774 92.2074 108.815C92.0569 113.717 92.0067 113.948 90.7024 114.826C87.6422 116.954 85.485 113.855 85.9365 108.075C86.1372 105.254 86.3378 104.653 87.4917 103.728C89.0468 102.525 89.2977 102.479 91.0535 103.219Z" fill="white"/>
<path d="M105.151 105.762C102.492 111.312 100.334 115.983 100.334 116.168C100.334 116.399 100.635 116.538 100.987 116.538C101.338 116.538 102.241 115.196 103.044 113.532L104.448 110.526H108.913H113.378L114.632 112.884C115.585 114.549 116.438 115.381 117.642 115.89C119.298 116.491 122.408 116.769 122.408 116.306C122.408 116.168 121.756 115.474 120.903 114.78C119.85 113.902 118.294 111.034 115.435 104.745C113.127 99.6119 111.171 95.9122 110.719 95.8198C110.217 95.7273 108.612 98.6407 105.151 105.762ZM112.625 108.63C112.926 109.555 112.776 109.601 109.164 109.601C107.057 109.601 105.351 109.416 105.351 109.185C105.351 108.953 106.204 107.057 107.207 104.976L109.064 101.138L110.669 104.421C111.572 106.225 112.425 108.121 112.625 108.63Z" fill="white"/>
<path d="M141.572 98.0395C141.271 98.5482 140.97 99.4731 140.97 100.121C140.97 100.953 140.619 101.415 139.716 101.739C138.161 102.294 138.11 103.034 139.615 103.219C140.669 103.358 140.719 103.543 140.87 108.953C140.97 114.133 141.07 114.642 142.174 115.566C143.528 116.723 146.187 116.954 148.445 116.075C150.452 115.335 150 114.595 147.943 115.289C145.435 116.168 144.983 115.104 144.983 108.583V103.126H146.739C147.943 103.126 148.495 102.895 148.495 102.433C148.495 101.97 147.943 101.739 146.739 101.739H144.983V99.4269C144.983 97.2071 144.933 97.1146 143.579 97.1146C142.776 97.1146 141.973 97.4846 141.572 98.0395Z" fill="white"/>
<path d="M122.91 102.155C122.91 102.433 123.261 102.664 123.662 102.664C125.017 102.664 125.418 104.421 125.418 110.526V116.584L127.575 116.445L129.682 116.306L129.732 110.479C129.732 107.289 129.933 104.468 130.134 104.144C130.585 103.496 133.144 103.404 134.448 104.051C135.752 104.699 136.856 103.45 135.903 102.387C135.401 101.832 134.699 101.739 132.742 101.924C129.532 102.294 128.829 102.294 125.569 101.924C123.763 101.739 122.91 101.832 122.91 102.155Z" fill="white"/>
<path d="M49.2088 101.936C47.218 102.739 45.1505 106.248 45.1505 108.878C45.1505 111.363 47.0648 114.871 48.9025 115.821C51.2764 116.991 55.5642 116.698 57.4786 115.164C58.4739 114.359 59.0865 113.556 58.7799 113.263C58.4739 112.971 57.7084 113.263 57.0191 113.921C54.1094 116.625 49.7448 114.725 49.7448 110.779C49.7448 109.39 50.2044 109.244 54.7219 109.244C59.546 109.244 59.699 109.171 59.699 107.344C59.699 104.713 55.8702 101.205 53.0373 101.278C51.889 101.278 50.1277 101.57 49.2088 101.936ZM54.6452 103.836C54.8749 104.493 55.1047 105.809 55.1047 106.759C55.1047 108.294 54.7219 108.513 52.4248 108.513C49.9745 108.513 49.7448 108.294 49.7448 106.467C49.7448 105.37 50.1277 104.055 50.6634 103.543C51.9652 102.301 54.1094 102.447 54.6452 103.836Z" fill="white"/>
<path d="M66.0763 103.336C61.2025 107.931 64.3746 116.538 70.9505 116.538C73.6585 116.538 76.9856 114.86 76.9856 113.474C76.9856 113.037 76.3666 113.182 75.6703 113.839C73.0395 115.954 69.7902 115.735 68.6298 113.256C66.8504 109.609 67.3144 109.244 72.7305 109.244C77.5269 109.244 77.7592 109.171 77.7592 107.493C77.7592 104.722 76.9856 103.41 74.5871 102.315C71.2601 100.638 68.6298 101.002 66.0763 103.336ZM73.2718 104.43C74.5099 107.056 73.5813 108.515 70.796 108.515C68.0107 108.515 67.3144 107.348 68.3975 104.649C69.4034 102.097 72.0341 102.024 73.2718 104.43Z" fill="white"/>
</svg>
