<svg width="136" height="122" viewBox="0 0 136 122" fill="none" xmlns="http://www.w3.org/2000/svg">
<path d="M52 1.12158C52 1.62158 52.6 2.12158 53.4 2.12158C55 2.12158 57.4 5.52158 58.4 9.12158C58.8 10.5216 60.2 14.3216 61.5 17.6216C74.9 51.9216 75.3 53.3216 71.7 55.5216C70.2 56.4216 69.4 56.0216 67.2 53.3216C65.7 51.5216 63.1 47.4216 61.6 44.3216C60 41.2216 57.2 36.1216 55.3 33.0216C53.5 29.9216 52 26.5216 52 25.4216C52 22.9216 49.3 19.1216 47.4 19.1216C45.2 19.1216 45.7 20.7216 49.8 26.1216C51.9 28.9216 56 36.0216 58.9 41.9216C61.8 47.8216 64.6 53.4216 65.1 54.4216C67 57.9216 65.2 57.2216 61 52.9216C58.7 50.5216 57.3 49.5216 57.8 50.6216C58.4 51.7216 59.8 53.5216 60.9 54.5216C62.1 55.6216 63 57.3216 63 58.3216C63 61.0216 60.4 65.7216 58.4 66.5216C55.9 67.4216 46.6 59.8216 41.7 52.9216C37.8 47.4216 36 45.9216 36 48.1216C36 48.7216 40.3 53.5216 45.5 58.8216C51 64.3216 55 69.1216 54.8 70.0216C54.3 72.4216 49.6 72.5216 44.8 70.0216C39.6 67.4216 33.5 62.6216 25.6 54.9216C22.4 51.7216 19.2 49.4216 18.7 49.8216C18 50.2216 19 51.5216 20.9 53.0216C22.7 54.4216 27.7 58.5216 32 62.1216C43.1 71.5216 45.3 73.1216 46.7 73.1216C48.5 73.1216 49.5 77.8216 48 79.6216C47.3 80.4216 46.4 80.8216 45.9 80.5216C45.4 80.2216 45 80.4216 45 81.0216C45 81.5216 45.5 82.3216 46.1 82.7216C48 83.8216 44.9 85.1216 40.2 85.1216C31.8 85.1216 10.2 78.0216 4.8 73.3216C3 71.8216 0 72.3216 0 74.0216C0 74.5216 1.7 75.5216 3.8 76.1216C5.8 76.8216 10.7 78.6216 14.5 80.1216C18.4 81.6216 23.1 83.2216 25 83.8216C37.5 87.4216 41 88.7216 41.5 89.9216C41.7 90.6216 41.4 91.4216 40.6 91.7216C38.6 92.5216 19.8 87.2216 17.6 85.2216C16 83.9216 15.8 83.9216 16.2 85.1216C16.4 85.9216 19.9 87.6216 24.1 88.9216C28.2 90.2216 33.5 92.1216 36 93.2216C38.5 94.2216 41.6 95.2216 43 95.3216C45.2 95.6216 45.5 96.0216 45.3 99.1216C44.9 105.022 45.7 106.922 49.5 108.122C51.4 108.722 53.3 109.922 53.7 110.622C54.2 111.322 56.7 114.222 59.3 117.022C64.1 122.022 64.1 122.022 69.8 121.722L75.5 121.422L76.2 117.522C77.3 111.222 77.1 110.122 74.4 107.422C72.9 106.022 71.8 103.822 71.8 102.722C72 99.6216 72.9 92.8216 73.2 92.7216C73.4 92.7216 75.1 91.1216 77.1 89.3216C79 87.5216 81.7 85.9216 82.9 85.6216C85.7 85.1216 88.2 83.2216 87.5 82.1216C87.2 81.7216 88 80.1216 89.1 78.7216C90.9 76.4216 91.5 76.2216 92.7 77.3216C93.6 78.0216 95.9 78.6216 97.9 78.7216C99.9 78.8216 103.3 79.6216 105.5 80.6216C107.7 81.5216 110.7 82.4216 112.2 82.5216C113.6 82.5216 114.6 82.9216 114.3 83.3216C113.4 84.9216 115.7 84.0216 117.2 82.3216C120.1 78.9216 120.1 77.1216 117.2 75.9216C115.7 75.2216 114.4 74.6216 114.2 74.5216C113.6 74.2216 117.3 65.6216 118.8 63.9216C119.6 63.0216 123.2 61.2216 126.9 60.1216C130.5 58.9216 134.1 57.7216 134.9 57.5216C135.7 57.3216 136 56.8216 135.7 56.5216C135.4 56.2216 131.4 57.3216 126.9 58.9216C114.5 63.2216 112.1 63.5216 106.4 61.1216C103.8 59.9216 99.3 58.5216 96.5 57.9216C93.8 57.4216 90.5 56.3216 89.2 55.5216C88 54.7216 86.5 54.3216 86.1 54.6216C84.9 55.3216 81 50.3216 81 48.2216C81 45.6216 76.1 37.0216 71.4 31.4216C68.3 27.8216 67 25.4216 67 23.3216C67 19.3216 65.4 15.2216 62.7 12.1216C61.5 10.7216 59.6 8.02158 58.6 6.12158C56 1.32158 52 -1.77842 52 1.12158Z" fill="#C1121F"/>
<path d="M52.9 42.8216C53.4 43.8216 54.5 45.5216 55.4 46.6216C56.8 48.4216 56.8 48.3216 55.8 44.8216C55.2 42.8216 54 41.1216 53.3 41.1216C52.3 41.1216 52.2 41.6216 52.9 42.8216Z" fill="#C1121F"/>
</svg>
